<?xml version="1.0" encoding="UTF-8"?>
<svg width="154px" height="146px" viewBox="0 0 154 146" version="1.1" xmlns="http://www.w3.org/2000/svg" xmlns:xlink="http://www.w3.org/1999/xlink">
    <!-- Generator: Sketch 53.2 (72643) - https://sketchapp.com -->
    <title>Illustration/Scenarios/Gps@1x</title>
    <desc>Created with Sketch.</desc>
    <defs>
        <polygon id="path-1" points="0.121436655 0.158110662 152.710901 0.158110662 152.710901 145.104474 0.121436655 145.104474"></polygon>
        <polyline id="path-3" points="0.131505488 81.9491959 83.6133112 96.5044525 97.7183185 14.5907888 14.2365127 0.0355322175"></polyline>
        <polyline id="path-5" points="0.131505488 81.9491959 83.6133112 96.5044525 97.7183185 14.5907888 14.2365127 0.0355322175"></polyline>
        <polygon id="path-7" points="0.131505488 81.9491959 83.6133112 96.5044525 97.7183185 14.5907888 14.2365127 0.0355322175"></polygon>
        <polyline id="path-9" points="0.131505488 81.9491959 83.6133112 96.5044525 97.7183185 14.5907888 14.2365127 0.0355322175"></polyline>
    </defs>
    <g id="✏️-Web-Mobile-" stroke="none" stroke-width="1" fill="none" fill-rule="evenodd">
        <g id="Webmobile-Boarding-LP" transform="translate(-103.000000, -1431.000000)">
            <g id="Illustration/Scenarios/Photos" transform="translate(100.000000, 1424.000000)">
                <g id="Group-3" stroke-width="1" transform="translate(3.636364, 7.526529)">
                    <mask id="mask-2" fill="white">
                        <use xlink:href="#path-1"></use>
                    </mask>
                    <g id="Clip-2"></g>
                    <path d="M138.190733,109.513445 C139.801327,107.696751 150.859095,92.7403129 152.3354,80.3470955 C156.543228,45.0228203 124.15861,59.3339022 116.557732,30.9996718 C106.541223,-6.34013784 48.8953754,-16.3770266 13.275305,38.4701893 C-22.3447654,93.3174051 25.6630872,139.246209 25.6630872,139.246209 C25.6630872,139.246209 37.218697,150.188557 51.5254852,142.163702 C65.8320994,134.138847 66.6762742,129.375779 78.4051373,128.768931 C89.9109977,128.17346 115.245808,135.392977 138.190733,109.513445" id="Fill-1" fill="#E3F5F7" mask="url(#mask-2)"></path>
                </g>
                <path d="M144.470391,121.865231 L51.5490661,145.451797 C51.3634624,145.498882 51.1733361,145.384584 51.1265438,145.197996 L22.6343839,31.5439099 C22.5875916,31.357322 22.7011804,31.1660081 22.8866101,31.1189235 L115.808109,7.53235751 C115.993539,7.48509791 116.183665,7.59957116 116.230458,7.78615906 L144.722618,121.44007 C144.76941,121.626833 144.655821,121.817972 144.470391,121.865231" id="Fill-4" fill="#B0B4B5"></path>
                <path d="M144.470391,121.865231 L51.5490661,145.451797 C51.3634624,145.498882 51.1733361,145.384584 51.1265438,145.197996 L22.6343839,31.5439099 C22.5875916,31.357322 22.7011804,31.1660081 22.8866101,31.1189235 L115.808109,7.53235751 C115.993539,7.48509791 116.183665,7.59957116 116.230458,7.78615906 L144.722618,121.44007 C144.76941,121.626833 144.655821,121.817972 144.470391,121.865231" id="Fill-6" fill="#B0B4B5"></path>
                <path d="M133.599671,134.023884 L37.8457594,137.922976 C37.6545894,137.930852 37.491773,137.779797 37.4839453,137.587432 L32.7737527,20.4688677 C32.766099,20.2765037 32.9160431,20.1128454 33.107387,20.1049688 L128.861299,16.2057018 C129.052469,16.1980002 129.215111,16.3488809 129.222939,16.54142 L133.933131,133.65981 C133.940959,133.852349 133.790841,134.016007 133.599671,134.023884" id="Fill-8" fill="#D4D4D4"></path>
                <path d="M133.599671,134.023884 L37.8457594,137.922976 C37.6545894,137.930852 37.491773,137.779797 37.4839453,137.587432 L32.7737527,20.4688677 C32.766099,20.2765037 32.9160431,20.1128454 33.107387,20.1049688 L128.861299,16.2057018 C129.052469,16.1980002 129.215111,16.3488809 129.222939,16.54142 L133.933131,133.65981 C133.940959,133.852349 133.790841,134.016007 133.599671,134.023884" id="Fill-10" fill="#D4D4D4"></path>
                <path d="M117.475237,142.978895 L23.0499482,126.515576 C22.8613875,126.482669 22.7338828,126.300632 22.7665852,126.110894 L42.654007,10.6173592 C42.6865355,10.4277956 42.8676165,10.2993195 43.0561773,10.3322262 L137.481466,26.7955453 C137.670027,26.828452 137.797532,27.010489 137.764829,27.2002275 L117.877407,142.693762 C117.844879,142.883501 117.663798,143.011802 117.475237,142.978895" id="Fill-12" fill="#F4F4F4"></path>
                <g id="Group-17" stroke-width="1" transform="translate(33.033754, 18.553769)">
                    <mask id="mask-4" fill="white">
                        <use xlink:href="#path-3"></use>
                    </mask>
                    <g id="Clip-16"></g>
                    <path d="M-28.5678103,38.5766809 C-6.96351129,74.919313 49.7724092,96.2381184 105.66172,70.4748102 C112.691523,67.234377 172.607754,38.7282617 178.495582,-7.42476316 C183.924532,-49.9795821 139.820096,-79.3139656 109.001889,-70.1681829 C82.3718542,-62.2655027 76.270591,-27.2608424 52.2871907,-27.4040214 C52.2871907,-27.4040214 29.8218439,-26.7402866 17.914683,-37.5394552 C6.95171754,-47.4825249 -21.9826208,-36.3170069 -33.4639544,-22.1576808 C-51.1107385,-0.394810196 -30.365052,35.5534668 -28.5678103,38.5766809" id="Fill-15" fill="#A2D1EB" mask="url(#mask-4)"></path>
                </g>
                <g id="Group-20" stroke-width="1" transform="translate(33.033754, 18.553769)">
                    <mask id="mask-6" fill="white">
                        <use xlink:href="#path-5"></use>
                    </mask>
                    <g id="Clip-19"></g>
                    <path d="M31.6738621,6.79165956 C30.4249078,6.57391533 29.1930006,6.61242315 28.0221495,6.85379718 C27.9412632,6.56026255 27.8499399,6.27040368 27.7497453,5.98439558 C27.7415697,5.96059074 27.7325243,5.93713598 27.7241748,5.91350618 C27.6295465,5.64832732 27.5274384,5.38647413 27.4168068,5.12847172 C27.4084572,5.1086927 27.4006295,5.08873865 27.3919321,5.06913467 C27.2724291,4.79380374 27.1442286,4.52249863 27.0068089,4.25644459 C27.0014164,4.24541735 26.9953282,4.23509025 26.9897619,4.22423805 C26.8608656,3.97603763 26.7232719,3.73238814 26.5792421,3.4929395 C26.5604556,3.46178317 26.5421909,3.43027677 26.5230565,3.39912045 C26.2207331,2.90517011 25.886403,2.43187397 25.5233713,1.98115742 C25.4929302,1.94352478 25.4626631,1.90589213 25.4318741,1.86860956 C25.0690164,1.42804507 24.6783268,1.01058528 24.2611969,0.61868067 C24.2204929,0.580697954 24.1794409,0.54306531 24.1383889,0.505432666 C23.946697,0.330047041 23.7506565,0.15921234 23.5487016,-0.00514604529 C23.5283496,-0.0217744229 23.5088673,-0.0389279072 23.4883413,-0.0555562849 C23.2677739,-0.232867301 23.0405964,-0.402301718 22.8082005,-0.565434854 C22.7600166,-0.599566787 22.7111369,-0.631773329 22.6624311,-0.66520512 C22.464999,-0.799982496 22.2637399,-0.929858878 22.05848,-1.05448419 C22.0122096,-1.08231485 21.9669828,-1.11154578 21.9203645,-1.1392014 C21.6784013,-1.28185538 21.4313937,-1.4173329 21.1789936,-1.54510885 C21.1302878,-1.5699639 21.0803645,-1.59254349 21.0309629,-1.61669839 C20.8187451,-1.72101958 20.6030483,-1.81938956 20.3840464,-1.91268351 C20.3202071,-1.93981402 20.2568896,-1.96764468 20.1925285,-1.99372498 C19.9296914,-2.1006717 19.6633754,-2.20114211 19.391667,-2.29181052 C19.3533982,-2.30458812 19.3142597,-2.31509025 19.2759909,-2.32751778 C19.0371588,-2.40470846 18.7948478,-2.47454764 18.5497536,-2.53878569 C18.4747815,-2.55838967 18.3998095,-2.57764358 18.3243156,-2.59602232 C18.0404307,-2.66498633 17.7537627,-2.72852423 17.4617022,-2.77928454 C17.1698157,-2.83021989 16.8787989,-2.8676775 16.588304,-2.89865879 C16.5110706,-2.90688546 16.4340112,-2.91406192 16.3567778,-2.92088831 C16.1045517,-2.94364293 15.8530213,-2.95992123 15.6023607,-2.96797287 C15.5620046,-2.96937315 15.5216484,-2.97252379 15.4814661,-2.97339897 C15.1953199,-2.98022536 14.9107393,-2.97584947 14.6275502,-2.96394705 C14.5581445,-2.96114648 14.4892607,-2.95642052 14.4202029,-2.95239471 C14.1827625,-2.93891697 13.9467136,-2.91913795 13.7118824,-2.89288262 C13.6574363,-2.88675637 13.6028163,-2.88238048 13.5485442,-2.87537906 C13.2683123,-2.84054699 12.9903417,-2.79661306 12.7148064,-2.7441024 C12.6617519,-2.73395033 12.6092193,-2.72187288 12.5563388,-2.71119571 C12.3213336,-2.66341101 12.0884158,-2.60914998 11.8574115,-2.54893775 C11.8005301,-2.53405973 11.7434748,-2.52023192 11.6869414,-2.50447872 C11.4134935,-2.42956351 11.1428287,-2.34677169 10.8759909,-2.25470299 C10.8511162,-2.24595121 10.8269373,-2.23614922 10.8022365,-2.22739744 C10.5569683,-2.14110491 10.3151791,-2.04658571 10.0761731,-1.94629034 C10.0248581,-1.92476097 9.97371713,-1.90340663 9.92275005,-1.88135215 C9.39881549,-1.65345586 8.89123214,-1.39265288 8.40226134,-1.10051854 C8.36086146,-1.07583853 8.31980948,-1.05080845 8.27858356,-1.02560333 C7.78578588,-0.724017066 7.31299234,-0.391449513 6.86298613,-0.0286008095 C6.83463243,-0.00584618751 6.80662663,0.0176085767 6.77862083,0.0407132699 C6.562924,0.21749918 6.35209774,0.400236298 6.14753365,0.59032491 C6.1388362,0.598551581 6.1296169,0.606428181 6.1207455,0.614829887 C5.90243943,0.818921343 5.69091737,1.03106443 5.48635328,1.24985888 C5.47174156,1.26561208 5.45765169,1.28171535 5.44321392,1.29729351 C5.2527397,1.50278525 5.06887554,1.71475331 4.89127356,1.93249754 C4.87527024,1.95210152 4.85909298,1.97100536 4.84343756,1.99043431 C4.65348519,2.2262072 4.47049078,2.4679313 4.29619383,2.71735696 C3.27441706,2.09335521 2.12704908,1.64001313 0.878094844,1.4222689 C-4.4762311,0.488629253 -9.56893767,4.09961273 -10.496608,9.48738212 C-11.4244523,14.8753266 -7.83588321,19.9996674 -2.48155726,20.9333071 L12.9164133,23.6180024 L28.31421,26.3026977 C33.6685359,27.2361623 38.7612425,23.6253539 39.6889128,18.2375845 C40.6167571,12.849465 37.028188,7.72512417 31.6738621,6.79165956" id="Fill-18" fill="#FFFFFF" mask="url(#mask-6)"></path>
                </g>
                <g id="Group-23" stroke-width="1" transform="translate(33.033754, 18.553769)">
                    <mask id="mask-8" fill="white">
                        <use xlink:href="#path-7"></use>
                    </mask>
                    <g id="Clip-22"></g>
                    <polygon id="Fill-21" fill="#2E978F" mask="url(#mask-8)" points="-20.5006618 41.4068308 77.2014794 58.4414659 133.008164 68.1715173 126.486292 106.045886 88.3867517 133.059998 13.1083835 119.934957 -11.6024717 84.6469139 -32.3474624 55.0223214"></polygon>
                </g>
                <g id="Group-26" stroke-width="1" transform="translate(33.033754, 18.553769)">
                    <mask id="mask-10" fill="white">
                        <use xlink:href="#path-9"></use>
                    </mask>
                    <g id="Clip-25"></g>
                    <path d="M93.6331075,18.5629756 C92.8249402,18.422072 92.0279056,18.446927 91.2703574,18.6032338 C91.2179988,18.4133202 91.1588561,18.2256821 91.0939731,18.0406695 C91.0887546,18.0252664 91.0828403,18.0102133 91.0774479,17.9948102 C91.0163918,17.8231003 90.9501172,17.6538409 90.8786241,17.486857 C90.8730578,17.4739044 90.8680133,17.4611268 90.8624469,17.4485242 C90.7850396,17.270163 90.7022398,17.0947774 90.6133518,16.9225424 C90.6096989,16.915541 90.605872,16.9087146 90.6022191,16.9018882 C90.5187235,16.7412056 90.4298356,16.5834985 90.3365989,16.4285921 C90.3244224,16.4082879 90.3125939,16.3879838 90.3002435,16.3678547 C90.1045508,16.0482398 89.8883322,15.7419276 89.653327,15.4503183 C89.6336707,15.4259884 89.6141884,15.4014834 89.5941843,15.3775036 C89.359527,15.0923706 89.1066051,14.8222908 88.8366362,14.5688393 C88.8103698,14.5439842 88.7837556,14.5198293 88.7571414,14.4954994 C88.6332897,14.3819013 88.5063069,14.2714539 88.3756712,14.1650323 C88.362451,14.1543551 88.3497527,14.1431528 88.3365326,14.1324757 C88.1938944,14.0176523 88.0469074,13.9080801 87.8964415,13.8025336 C87.8654786,13.7804792 87.8336459,13.7596499 87.8021611,13.7381206 C87.6744825,13.6507778 87.5443686,13.5667607 87.4114715,13.4860694 C87.3815523,13.4680407 87.3521549,13.4491369 87.3220617,13.4312832 C87.1655076,13.3388645 87.0056484,13.2511716 86.8423102,13.1687299 C86.8108254,13.1526266 86.7784709,13.1379236 86.7466382,13.1223455 C86.6092185,13.0547818 86.4697113,12.9910688 86.3279428,12.9306815 C86.2867169,12.913353 86.2456649,12.8951493 86.2040911,12.8781709 C86.0339689,12.8092069 85.8615854,12.7440936 85.6857229,12.6854567 C85.6610222,12.6772301 85.6357995,12.6704037 85.6109248,12.662352 C85.4564581,12.6124669 85.29973,12.5671327 85.1410884,12.5258243 C85.0925566,12.5130467 85.0440248,12.5004442 84.9951452,12.4885417 C84.811455,12.4439077 84.6260253,12.4029493 84.4371166,12.3700427 C84.2482079,12.337136 84.0598211,12.3129811 83.8719561,12.292852 C83.8218588,12.2872508 83.7721093,12.2826999 83.722186,12.278324 C83.5588478,12.2637961 83.3960315,12.2531189 83.233911,12.2478678 C83.2078186,12.2469927 83.1817262,12.2448922 83.1558078,12.2443671 C82.9705521,12.2399912 82.786514,12.2429669 82.6031717,12.2506684 C82.5582928,12.2522437 82.5137619,12.2553944 82.4690569,12.2580199 C82.3154599,12.2667717 82.1625587,12.2795493 82.0107012,12.2965277 C81.9753895,12.3005535 81.9400779,12.3033541 81.9049402,12.307905 C81.7236852,12.3304846 81.5438219,12.3588404 81.3655241,12.3927973 C81.3310822,12.3992736 81.2971621,12.4071502 81.2630681,12.4141516 C81.1108627,12.4449579 80.9602228,12.48014 80.8108006,12.519173 C80.7739234,12.5286249 80.7370462,12.5375517 80.7003429,12.5478788 C80.5234367,12.5963636 80.34827,12.6499245 80.1757126,12.7096116 C80.1595353,12.7152128 80.1438799,12.7215141 80.1278766,12.7271152 C79.969235,12.7831266 79.8128548,12.8440389 79.6582141,12.9089771 C79.6249899,12.92298 79.5917656,12.9366328 79.5588892,12.9509857 C79.2198625,13.0983656 78.8914467,13.2672749 78.5750333,13.4563133 C78.5482452,13.4722415 78.521631,13.4885199 78.4950168,13.5047982 C78.1761682,13.6999628 77.8701918,13.9150815 77.579001,14.1498042 C77.5607364,14.1646822 77.5426457,14.1797353 77.524381,14.1947883 C77.3848739,14.3090865 77.2484978,14.4274106 77.1161226,14.5504606 C77.1103823,14.5557116 77.104468,14.5607877 77.0987277,14.5662138 C76.9574811,14.6983656 76.8207571,14.8354184 76.6882079,14.9771972 C76.6788147,14.9871743 76.6697693,14.9976764 76.6603761,15.0076534 C76.5372201,15.1408555 76.418065,15.2779083 76.3032586,15.4188119 C76.2929957,15.4314145 76.2823848,15.443842 76.2722957,15.4564446 C76.1493137,15.6089006 76.0310284,15.7653823 75.9181354,15.9265901 C75.2569551,15.5229581 74.5145405,15.2295985 73.7065471,15.0886949 C70.2418298,14.4846472 66.9467128,16.8210218 66.3464146,20.3073799 C65.7461164,23.7935631 68.0679884,27.1094366 71.5325318,27.7133093 L81.4959859,29.4505371 L91.4592661,31.187765 C94.9238095,31.7918127 98.2191004,29.4552631 98.8193986,25.969255 C99.4196968,22.4828968 97.0976509,19.1670233 93.6331075,18.5629756" id="Fill-24" fill="#FFFFFF" mask="url(#mask-10)"></path>
                </g>
                <path d="M82.9863574,79.0109266 C83.1650031,80.7231244 83.3438227,82.4354972 83.5226424,84.14787 C83.8051356,86.8544448 84.0876289,89.5606695 84.3701222,92.2670692 C84.4350052,92.8875703 84.4997142,93.5078963 84.5644233,94.1283973 C84.5513771,94.4796937 84.6240878,94.8073602 84.7829033,95.111397 C84.8851853,95.4276862 85.0598302,95.7012668 85.3070118,95.9324888 C85.746929,96.3749787 86.4682957,96.7080713 87.0999047,96.6797156 C87.7555187,96.6501346 88.4356596,96.4334405 88.8927977,95.9324888 C89.3200166,95.4640936 89.70427,94.7893316 89.6353862,94.1283973 C89.4565666,92.4161995 89.2777469,90.7038267 89.0991013,88.9914539 C88.816608,86.2850542 88.5339408,83.5786544 88.2514475,80.8722547 C88.1867385,80.2517536 88.1218555,79.6312526 88.0571464,79.0109266 C88.0703665,78.6596302 87.9976558,78.3319637 87.8388403,78.0279269 C87.7365583,77.7116377 87.5617395,77.4380571 87.3145579,77.2068351 C86.8748147,76.7643453 86.153274,76.4312526 85.5218389,76.4596084 C84.8660509,76.4891894 84.1859101,76.7058834 83.728946,77.2068351 C83.3015531,77.6752303 82.9174736,78.3501674 82.9863574,79.0109266" id="Fill-28" fill="#99253C"></path>
                <path d="M75.8101934,78.5430741 C75.4755154,80.231467 75.1408374,81.920035 74.8061595,83.608428 C74.2771804,86.2773701 73.7482013,88.9461372 73.2190483,91.6149043 C73.0979797,92.2266535 72.9765633,92.8384028 72.8553208,93.4501521 C72.7208581,94.1287649 72.7549522,94.803877 73.1108519,95.4159764 C73.4187418,95.9452839 74.0218232,96.4500864 74.6261222,96.5885395 C75.2753001,96.7373198 76.0037987,96.7051132 76.579918,96.3314123 C77.1123761,95.9858921 77.6166544,95.4541341 77.7450288,94.8066776 C78.0797068,93.1182847 78.4143848,91.4297167 78.7492367,89.7413237 L80.3361739,81.7348474 C80.4574164,81.1230981 80.5786589,80.5113489 80.6999014,79.8995996 C80.8343641,79.2209868 80.80027,78.5458746 80.4443703,77.9337753 C80.1366544,77.4044678 79.533573,76.8996652 78.9291,76.7612121 C78.2800961,76.6124319 77.5514235,76.6446384 76.9754782,77.0183394 C76.4428461,77.3638595 75.9385678,77.8956175 75.8101934,78.5430741" id="Fill-30" fill="#99253C"></path>
                <path d="M96.8942978,96.177066 C96.709042,95.4310644 96.5237863,94.6852379 96.3385305,93.9392364 C95.8958302,92.1563243 95.4529559,90.3737622 95.0102555,88.5910251 C94.4748403,86.4352872 93.9395991,84.2791992 93.4041839,82.1234613 C93.1403032,81.0616957 92.8767703,79.99993 92.6130636,78.9381643 C92.6068014,78.3099617 92.4502473,77.7029384 92.1635792,77.1286468 C92.1124382,76.9226299 92.0612972,76.716438 92.0101561,76.5105962 C91.7850661,75.6044372 91.5712827,74.6946023 91.3348859,73.7912438 C91.3314069,73.7782912 91.3282758,73.7653386 91.3251448,73.752386 C91.1118832,72.8936615 90.4461802,72.0606673 89.6938505,71.6176523 C89.2864618,71.3566743 88.8465446,71.2155957 88.3742729,71.1938913 C87.9023491,71.0874696 87.4305993,71.108824 86.9586755,71.2577792 C86.15103,71.5208577 85.3701727,72.0102571 84.9191228,72.7548583 C83.8559462,72.5542676 82.7233638,72.4457455 81.5474682,72.4457455 C80.2816409,72.4457455 79.0655631,72.5715961 77.9328068,72.802468 C77.4810611,72.1168537 76.692724,71.4886511 75.9024734,71.3074893 C74.9937635,71.0993721 73.9737262,71.1443562 73.1672984,71.6677125 C72.3960083,72.1679641 71.7715312,72.8878854 71.5360041,73.8022711 C71.3443123,74.5465223 71.1526204,75.2909485 70.9607546,76.0351996 C70.5025728,77.813911 70.044391,79.5926223 69.5862092,81.3715086 C69.0321814,83.5225205 68.4779797,85.6735324 67.923952,87.8245444 C67.4429828,89.6912985 66.9620137,91.5582278 66.4812185,93.4249819 C66.2483007,94.3292156 66.0066854,95.231874 65.7822912,96.1382081 C65.7791601,96.1513357 65.7755071,96.1641133 65.7722021,96.177066 C65.5391104,97.0825249 65.6580915,98.1175101 66.1301893,98.9295001 C66.5610611,99.6702505 67.4052359,100.376869 68.251498,100.570808 C69.1602079,100.779101 70.1800712,100.733942 70.986673,100.21076 C71.7579631,99.7103337 72.3822663,98.9902374 72.6177933,98.0762017 C72.8096591,97.3319506 73.001351,96.5875243 73.1930429,95.8430981 C73.6512247,94.0643868 74.1095805,92.2856755 74.5675883,90.5067892 C75.0703011,88.556193 75.572666,86.6054217 76.0752048,84.6548255 C77.6891042,85.1976108 79.5567952,85.5081238 81.5474682,85.5081238 C83.4235088,85.5081238 85.1901354,85.2322678 86.738282,84.746019 C87.1488018,86.3990548 87.5591476,88.0520906 87.9696674,89.7049513 C88.4344593,91.5760814 88.8990772,93.4468614 89.3636952,95.3179915 C89.5887853,96.2241505 89.8025686,97.1339853 90.0389654,98.0371688 C90.0424444,98.0501214 90.0454015,98.0630741 90.0487066,98.0762017 C90.2619681,98.9347511 90.9276712,99.7679204 91.6800008,100.21076 C92.0873895,100.471738 92.5273067,100.613167 92.9995784,100.634696 C93.4715022,100.740943 93.943252,100.719589 94.4151758,100.570808 C95.2739623,100.291102 96.1026556,99.7554928 96.5364846,98.9295001 C96.9891,98.0672749 97.132608,97.1366109 96.8942978,96.177066" id="Fill-32" fill="#C4304D"></path>
                <path d="M95.320685,74.377613 C95.320685,78.9239864 89.3966759,82.60936 82.0892499,82.60936 C74.78165,82.60936 68.8576409,78.9239864 68.8576409,74.377613 C68.8576409,69.8314145 74.78165,66.1460409 82.0892499,66.1460409 C89.3966759,66.1460409 95.320685,69.8314145 95.320685,74.377613" id="Fill-34" fill="#99253C"></path>
                <path d="M99.0108229,68.4055399 C97.0147575,64.0716596 93.4338422,56.3583678 92.1880191,53.5105393 C92.0225935,53.1321125 91.898046,52.839453 91.8242916,52.65234 C91.0218646,50.6182518 90.1849957,48.6231966 88.6076256,47.0436757 C87.9991518,46.434377 87.3287521,45.9118959 86.6139954,45.4783328 C86.4562236,45.3825883 86.5259772,45.1373635 86.7101893,45.1336878 L90.9251489,45.0477453 L91.9312702,45.0272662 C92.3884084,45.0179893 92.7512661,44.637637 92.7420468,44.1778186 L92.7262174,43.392084 L92.6531588,39.7592211 C92.6190648,38.0655771 91.2269505,36.7204288 89.5438194,36.7547358 L86.6994044,36.8126726 C85.0162733,36.8469795 83.6794748,38.2477891 83.7135689,39.9414331 L83.7591435,42.2098939 L83.7626225,42.3782781 L83.7888888,43.6828181 C83.7939333,43.933469 83.607112,44.1265332 83.3755858,44.1541888 C82.8577395,43.9989323 82.2690959,43.9149152 81.6454885,43.9243671 C81.0349273,43.933644 80.4607215,44.0316639 79.9555734,44.1963724 C79.7511833,44.1515633 79.5908022,43.9754775 79.5885409,43.7468811 L79.5754947,42.441991 L79.5739292,42.2736068 L79.5511419,40.004796 C79.5342688,38.3109769 78.1560704,36.9514758 76.4725914,36.9684542 L73.6276546,36.9973351 C71.9441756,37.0141385 70.5932872,38.4011202 70.6101603,40.0951143 L70.6465156,43.7286774 L70.6543433,44.514412 C70.658866,44.9742304 71.0332044,45.3433804 71.4901686,45.3388294 L72.4964639,45.3285024 L76.7121193,45.2859687 C76.8965053,45.2840433 76.9735647,45.5269927 76.8185761,45.6274631 C76.1172135,46.0827306 75.4629911,46.6253408 74.8731298,47.2530183 C73.3439437,48.8797987 72.567609,50.8993589 71.826586,52.9569019 C71.758572,53.1462903 71.6428958,53.4428006 71.488777,53.8259534 C70.3294065,56.7103643 66.9821048,64.5292025 65.1175448,68.9218948 C63.7276919,77.6512679 74.2686569,81.6254502 82.2529186,81.7668789 L82.2529186,81.767579 L82.2612682,81.7670539 C82.2640514,81.767229 82.2668345,81.767229 82.2696177,81.767229 L82.2696177,81.7667039 C90.2460518,81.3821507 100.662643,77.0883536 99.0108229,68.4055399" id="Fill-36" fill="#EF3A5D"></path>
                <path d="M90.4016144,70.592119 C89.5637018,72.9621004 87.7271476,74.9055202 85.8672843,76.5186479 C84.6623392,77.5637851 83.3737246,78.5352325 82.0137908,79.3685767 C81.9261205,79.4221376 81.8099226,79.4233629 81.7212085,79.3712023 C80.4853005,78.6448047 79.308709,77.8023586 78.1926519,76.9023258 C75.3915502,74.6429669 71.6871311,70.9042074 73.0381934,66.9042949 C73.6870234,64.9834548 75.2238633,63.429139 77.304468,63.2899858 C79.0944038,63.1704365 80.7549215,64.1340072 81.7410387,65.5915283 C82.6899308,64.1315567 84.3053957,63.1445312 86.0777627,63.2061437 C88.2084647,63.2800088 89.7446088,64.8199716 90.4668453,66.7425621 C90.9057188,68.0005426 90.8430971,69.3435904 90.4016144,70.592119" id="Fill-38" fill="#FFFFFF"></path>
                <path d="M81.7630259,84.056694 C81.5148006,84.056694 81.3135415,83.8541779 81.3135415,83.6044021 C81.3135415,83.3546264 81.5148006,83.1521103 81.7630259,83.1521103 C82.0112512,83.1521103 82.2125103,83.3546264 82.2125103,83.6044021 C82.2125103,83.8541779 82.0112512,84.056694 81.7630259,84.056694 M81.7630259,82.9712985 C80.1743491,82.9712985 78.8862564,84.2670868 78.8862564,85.8658615 C78.8862564,87.4646363 80.1743491,88.7605995 81.7630259,88.7605995 C83.3517026,88.7605995 84.6397954,87.4646363 84.6397954,85.8658615 C84.6397954,84.2670868 83.3517026,82.9712985 81.7630259,82.9712985" id="Fill-40" fill="#FFD567"></path>
                <path d="M81.8072585,83.5139963 L81.7931945,83.5139963 C81.677534,83.5139963 81.5832843,83.4352303 81.5832843,83.3389607 L81.5832843,82.7844481 C81.5832843,82.6881785 81.677534,82.6094125 81.7931945,82.6094125 L81.8072585,82.6094125 C81.9227091,82.6094125 82.0171686,82.6881785 82.0171686,82.7844481 L82.0171686,83.3389607 C82.0171686,83.4352303 81.9227091,83.5139963 81.8072585,83.5139963" id="Fill-42" fill="#FFD567"></path>
                <path d="M80.4624958,85.9487583 C80.4624958,85.7761733 80.4943284,85.6044634 80.5586896,85.4329286 C80.6228768,85.2619188 80.7169832,85.1085877 80.8404871,84.9738103 C80.9632951,84.8388579 81.1135871,84.7298107 81.2906672,84.6464938 C81.4672255,84.5623017 81.6681367,84.5206433 81.8934007,84.5206433 C82.1614562,84.5206433 82.3942,84.5787551 82.5909364,84.6948036 C82.7883686,84.8108522 82.9350077,84.9613828 83.0312015,85.1479707 L82.5246618,85.5036429 C82.4923073,85.4283776 82.4519511,85.3657149 82.4022017,85.3158298 C82.3526262,85.2661197 82.2980062,85.2251614 82.2393854,85.1941801 C82.1802427,85.1637239 82.1198824,85.1418444 82.0581305,85.1294169 C81.9965525,85.1173395 81.9363661,85.1112132 81.8775713,85.1112132 C81.7516322,85.1112132 81.6413485,85.1371185 81.5477639,85.1880538 C81.4541793,85.2395143 81.3762502,85.3056777 81.3144982,85.3865441 C81.2527463,85.4675856 81.2071717,85.5591292 81.1779482,85.661525 C81.1485508,85.7642709 81.1337652,85.8677169 81.1337652,85.9732633 C81.1337652,86.0866864 81.1509861,86.1955585 81.1859499,86.3011049 C81.2209136,86.4057762 81.271011,86.4990701 81.3367637,86.5799365 C81.4025165,86.660803 81.4814893,86.7252161 81.5740302,86.7719506 C81.6660493,86.8193852 81.7704187,86.84319 81.8857469,86.84319 C81.9443678,86.84319 82.0055978,86.8354885 82.0683935,86.8206104 C82.131537,86.8059074 82.1917233,86.7831528 82.2494744,86.7519965 C82.3070516,86.7210152 82.3597581,86.6802319 82.4084639,86.6305218 C82.4562999,86.5804617 82.4954384,86.5193742 82.5246618,86.4465595 L83.063556,86.7663494 C83.0205906,86.8711957 82.9567513,86.9658899 82.872386,87.0493819 C82.7883686,87.1328739 82.6906092,87.2030631 82.5808474,87.2595996 C82.4710855,87.3161361 82.3547136,87.3595449 82.2312098,87.3889509 C82.1077059,87.418882 81.9875071,87.4335849 81.8695697,87.4335849 C81.6630922,87.4335849 81.4733137,87.3908763 81.3002344,87.305984 C81.1278509,87.2209167 80.9791245,87.1083689 80.8540551,86.9683404 C80.7296815,86.8277869 80.6329658,86.6690296 80.5646039,86.4910185 C80.4964158,86.3131824 80.4624958,86.1325457 80.4624958,85.9487583" id="Fill-44" fill="#F26A4B"></path>
                <path d="M85.8009749,84.2484805 L84.8832197,84.2484805 L84.8832197,83.3249929 C84.8832197,82.9537425 84.3097097,82.9530423 84.3097097,83.3249929 L84.3097097,84.2484805 L83.3919544,84.2484805 C83.0228345,84.2484805 83.0221387,84.8257477 83.3919544,84.8257477 L84.3097097,84.8257477 L84.3097097,85.7490603 C84.3097097,86.1204857 84.8832197,86.1210108 84.8832197,85.7490603 L84.8832197,84.8257477 L85.8009749,84.8257477 C86.1700948,84.8257477 86.1706167,84.2484805 85.8009749,84.2484805" id="Fill-46" fill="#EEECF5"></path>
                <path d="M79.7552189,86.4896007 L79.0602924,86.4896007 L79.0602924,85.7901586 C79.0602924,85.5088765 78.6259416,85.5085264 78.6259416,85.7901586 L78.6259416,86.4896007 L77.9308412,86.4896007 C77.651305,86.4896007 77.6509571,86.9266645 77.9308412,86.9266645 L78.6259416,86.9266645 L78.6259416,87.6259315 C78.6259416,87.9072137 79.0602924,87.9077388 79.0602924,87.6259315 L79.0602924,86.9266645 L79.7552189,86.9266645 C80.034755,86.9266645 80.0352769,86.4896007 79.7552189,86.4896007" id="Fill-48" fill="#EEECF5"></path>
                <path d="M80.5584634,83.4110929 L80.1418555,83.4110929 L80.1418555,82.9917077 C80.1418555,82.8233235 79.8814537,82.8231485 79.8814537,82.9917077 L79.8814537,83.4110929 L79.4650197,83.4110929 C79.2973328,83.4110929 79.2971588,83.6729461 79.4650197,83.6729461 L79.8814537,83.6729461 L79.8814537,84.0923313 C79.8814537,84.2607155 80.1418555,84.2610655 80.1418555,84.0923313 L80.1418555,83.6729461 L80.5584634,83.6729461 C80.7259764,83.6729461 80.7263243,83.4110929 80.5584634,83.4110929" id="Fill-50" fill="#EEECF5"></path>
                <path d="M83.2553522,88.4766918 L82.8387443,88.4766918 L82.8387443,88.0574817 C82.8387443,87.8890975 82.5783425,87.8887474 82.5783425,88.0574817 L82.5783425,88.4766918 L82.1619085,88.4766918 C81.9942216,88.4766918 81.9940476,88.7387201 82.1619085,88.7387201 L82.5783425,88.7387201 L82.5783425,89.1579302 C82.5783425,89.3263144 82.8387443,89.3266645 82.8387443,89.1579302 L82.8387443,88.7387201 L83.2553522,88.7387201 C83.4228652,88.7387201 83.4232131,88.4766918 83.2553522,88.4766918" id="Fill-52" fill="#EEECF5"></path>
            </g>
        </g>
    </g>
</svg>