<?xml version="1.0" encoding="UTF-8"?>
<svg width="154px" height="141px" viewBox="0 0 154 141" version="1.1" xmlns="http://www.w3.org/2000/svg" xmlns:xlink="http://www.w3.org/1999/xlink">
    <!-- Generator: Sketch 53.2 (72643) - https://sketchapp.com -->
    <title>Illustration/Scenarios/Gps@1x</title>
    <desc>Created with Sketch.</desc>
    <defs>
        <path d="M130.569182,18.6105455 C109.993727,-10.8567273 78.5046364,-2.40309091 41.3028182,23.5678182 C34.9428182,28.0087273 29.2246364,32.5405455 24.2037273,37.1487273 C24.1828182,37.1678182 24.1582727,37.1832727 24.1373636,37.2023636 C22.3882727,38.7969091 20.7837273,40.3687273 19.2973636,41.9069091 C19.0773636,42.1332727 18.8591818,42.3587273 18.6437273,42.5850909 C18.5673636,42.6650909 18.4946364,42.7441818 18.4191818,42.8241818 C14.9600909,46.4669091 11.9400909,50.1523636 9.411,53.876 L9.48463636,53.8587273 C4.91645455,60.5487273 3.35372727,65.0250909 3.35372727,65.0250909 L3.35372727,65.0269091 C-0.723545455,75.0450909 -1.19536364,85.2796364 2.55827273,95.6096364 C2.55827273,95.6069091 2.55736364,95.6096364 2.55554545,95.6069091 C2.49190909,95.4423636 2.53918182,95.6005455 2.70736364,96.0150909 C4.20736364,100.026909 6.34190909,104.052364 9.15827273,108.086 C9.80827273,109.016 10.5128182,109.914182 11.2464545,110.791455 L11.2364545,110.796909 C11.2364545,110.796909 12.3364545,112.256 14.6564545,114.400545 C15.5728182,115.266909 16.5173636,116.114182 17.5200909,116.918727 L17.501,116.836909 C18.2064545,117.396909 18.9873636,117.981455 19.821,118.576 L19.7328182,118.596 C21.921,120.164182 24.2955455,121.580545 26.7955455,122.876909 C27.0964545,123.036909 27.3837273,123.198727 27.6937273,123.358727 C27.8373636,123.432364 27.9764545,123.496 28.1146364,123.558727 C33.3637273,126.130545 39.1982727,128.136 45.4119091,129.558727 C47.6037273,130.083273 49.9019091,130.524182 52.3028182,130.879636 C52.7046364,130.941455 53.1064545,131.004182 53.5100909,131.061455 C53.6519091,131.080545 53.7846364,131.106 53.9255455,131.125091 C54.0428182,131.139636 54.1555455,131.148727 54.2719091,131.164182 C56.8219091,131.509636 59.4091818,131.776 62.0300909,131.944182 C62.0191818,131.925091 62.0119091,131.906909 62.001,131.887818 C98.7837273,134.197818 122.709182,119.318727 122.709182,119.318727 L122.710091,119.296 C125.465545,117.795091 128.131,116.176909 130.662818,114.409636 C167.863727,88.4387273 151.143727,48.0778182 130.569182,18.6105455" id="path-1"></path>
        <path d="M20.2473636,62.3392727 C17.0419091,61.6192727 13.8537273,60.6710909 10.8064545,59.4356364 C10.6100909,59.3556364 10.4655455,59.1647273 10.4419091,58.9529091 C10.1173636,56.0147273 10.0573636,53.0329091 10.1673636,50.0810909 C10.4428182,42.672 12.0446364,31.9556364 20.3000909,29.3029091 C24.2646364,28.0283636 28.7182727,28.6756364 31.5091818,31.9565455 C33.9100909,34.7783636 34.3655455,38.7110909 33.1773636,42.1292727 C36.7519091,41.9165455 40.3673636,43.3874545 42.4473636,46.4029091 C44.9482727,50.0265455 44.301,54.4583636 42.0228182,58.0074545 C40.4891818,60.2747273 38.1982727,61.8138182 35.5973636,62.6083636 C30.6591818,64.1183636 25.1955455,63.4501818 20.2473636,62.3392727 M101.383727,34.7129091 L98.2837273,29.7210909 C96.4500909,26.7665455 92.5682727,25.8583636 89.6146364,27.692 L83.4055455,31.5456364 L83.1264545,31.7192727 C82.5964545,32.0474545 81.9173636,31.7892727 81.7082727,31.2029091 C80.5882727,28.0701818 78.8055455,25.2392727 76.511,22.9110909 C76.0719091,22.4647273 76.1373636,21.7338182 76.6700909,21.4038182 L79.2391818,19.8092727 L83.1964545,17.3529091 C86.151,15.5192727 87.0591818,11.6383636 85.2255455,8.68381818 L82.1264545,3.692 C80.2928182,0.737454545 76.4119091,-0.170727273 73.4573636,1.66290909 L67.1200909,5.59654545 L65.7500909,6.44654545 C64.9473636,6.94381818 64.701,7.99836364 65.1991818,8.80018182 L70.8873636,17.9638182 C71.0873636,18.2874545 70.7437273,18.682 70.4019091,18.5156364 C68.851,17.762 67.1982727,17.1847273 65.4655455,16.8110909 C60.971,15.8438182 56.5955455,16.6238182 52.191,17.5065455 C47.4991818,18.4474545 5.58827273,26.7856364 4.84736364,27.0174545 C3.14918182,27.5510909 2.35372727,28.8238182 1.88463636,30.3001818 C1.56736364,31.2983636 1.39918182,32.3901818 1.20372727,33.4074545 C0.893727273,35.0147273 0.614636364,36.6383636 0.432818182,38.2692727 C0.386454545,38.6774545 0.347363636,39.0865455 0.315545455,39.4956364 C0.269181818,40.0765455 0.236454545,40.6583636 0.221909091,41.2410909 C0.0328181818,48.8701818 2.06554545,56.452 5.85554545,63.0283636 C6.07281818,63.4056364 6.29645455,63.7792727 6.52554545,64.1492727 C7.92736364,66.4183636 9.54372727,68.5565455 11.3537273,70.5210909 C11.5573636,70.742 11.7628182,70.9601818 11.9700909,71.1774545 C17.2082727,76.6192727 23.9600909,80.5474545 31.2428182,82.5047273 C31.4119091,82.5429091 31.5819091,82.5792727 31.7519091,82.6156364 L31.9900909,82.6547273 C32.1619091,82.682 32.3328182,82.7074545 32.5046364,82.7329091 C31.7919091,83.6410909 31.131,84.5301818 30.5528182,85.3838182 C30.3237273,85.6910909 30.091,85.9947273 29.8691818,86.3074545 C29.391,86.9847273 28.951,87.6910909 28.5546364,88.4192727 C27.9455455,89.5401818 27.4528182,90.7247273 26.9682727,91.9038182 C26.8591818,92.162 26.7528182,92.4156364 26.6573636,92.6592727 C26.6428182,92.6947273 26.6282727,92.7310909 26.6128182,92.7665455 C26.5719091,92.8656364 26.5419091,92.9683636 26.5019091,93.0683636 C26.4219091,93.2838182 26.341,93.4983636 26.271,93.7001818 C26.1982727,93.9047273 26.1128182,94.1029091 26.0473636,94.3101818 C25.9537273,94.6074545 25.871,94.9083636 25.7973636,95.212 C25.5155455,96.2283636 25.4000909,96.9129091 25.3591818,97.2129091 C25.3546364,97.2447273 25.3491818,97.2765455 25.3455455,97.3083636 C25.3382727,97.3674545 25.3346364,97.4001818 25.3346364,97.4001818 L25.3373636,97.4001818 C25.291,97.8092727 25.2728182,98.2165455 25.2873636,98.6247273 C25.2800909,98.7856364 25.2628182,98.9447273 25.2628182,99.1065455 C25.2628182,104.784727 29.8655455,109.387455 35.5437273,109.387455 C37.7755455,109.387455 39.8291818,108.662 41.5137273,107.452909 L41.5228182,107.465636 C41.5228182,107.465636 41.6782727,107.358364 41.9264545,107.156545 C41.9719091,107.121091 42.0137273,107.082909 42.0582727,107.046545 C42.1855455,106.939273 42.331,106.808364 42.4937273,106.654727 C42.7046364,106.461091 42.9046364,106.260182 43.0973636,106.050182 C43.2391818,105.901091 43.3828182,105.737455 43.5346364,105.562909 C43.5428182,105.553818 43.551,105.544727 43.5582727,105.536545 C43.5682727,105.525636 43.5764545,105.513818 43.5855455,105.502909 C43.7600909,105.300182 43.9364545,105.082909 44.1200909,104.843818 C44.1455455,104.812 44.1691818,104.780182 44.1928182,104.746545 C44.4928182,104.352909 44.8000909,103.912 45.1091818,103.420182 C46.0028182,108.311091 50.2637273,112.026545 55.4119091,112.026545 C61.0319091,112.026545 65.6055455,107.607455 65.8819091,102.056545 L65.8946364,102.059273 L66.0019091,99.652 C71.6146364,98.0847273 77.0728182,96.0938182 82.2446364,93.6701818 C81.0455455,91.442 79.8737273,89.1974545 78.7255455,86.942 C77.6400909,84.8129091 76.5764545,82.6710909 75.531,80.522 C75.2628182,79.7483636 74.9119091,79.0247273 74.481,78.3456364 C74.3064545,77.9829091 74.1328182,77.6192727 73.9600909,77.2547273 C73.1355455,75.5210909 72.3237273,73.7810909 71.5246364,72.0347273 C71.6428182,71.3510909 71.8000909,70.7792727 71.961,70.3138182 C72.6155455,69.6383636 73.2519091,68.9374545 73.8700909,68.2101818 C75.7664545,65.9792727 77.3991818,63.6110909 78.771,61.1474545 C82.3619091,54.4247273 83.4946364,47.7710909 83.2455455,39.2501818 C83.2346364,38.8438182 83.7382727,38.6665455 83.9528182,39.012 L84.2391818,39.4729091 L89.2928182,47.6147273 C89.791,48.4174545 90.8446364,48.6638182 91.6473636,48.1656364 L99.3537273,43.382 C102.308273,41.5483636 103.216455,37.6674545 101.383727,34.7129091" id="path-3"></path>
        <path d="M33.973,5.66581818 C35.053,7.40127273 35.7039091,9.34945455 36.1602727,11.3167273 C35.6311818,9.36672727 34.9075455,7.45490909 33.7820909,5.79036364 C32.6693636,4.13036364 31.1320909,2.73854545 29.2911818,2.00581818 C28.3775455,1.64127273 27.403,1.41127273 26.4311818,1.38127273 C25.4875455,1.38309091 24.4684545,1.56763636 23.5411818,1.82854545 C21.653,2.37036364 20.0311818,3.56945455 18.7984545,5.064 C16.3802727,8.164 15.4466364,12.1858182 15.0148182,16.1058182 C14.6748182,19.4676364 14.7166364,22.9003636 15.0402727,26.2576364 C14.5366364,27.0867273 13.9502727,27.8221818 13.4520909,28.3830909 C13.443,28.3476364 13.423,28.3185455 13.4184545,28.2821818 C13.4166364,28.2712727 13.4157273,28.2585455 13.4148182,28.2476364 C13.043,24.1121818 13.0993636,20.0221818 13.6611818,15.9376364 C13.9584545,13.9030909 14.4002727,11.8785455 15.0820909,9.92127273 C15.7757273,7.97218182 16.7411818,6.08490909 18.1011818,4.47945455 C19.4893636,2.91218182 21.3184545,1.67309091 23.3566364,1.17309091 C24.383,0.929454545 25.3802727,0.779454545 26.4575455,0.814 C27.5075455,0.886727273 28.5220909,1.16854545 29.4693636,1.58763636 C31.3757273,2.43127273 32.9057273,3.93672727 33.973,5.66581818 Z M0.446636364,5.01327273 C3.85663636,5.45509091 7.31027273,5.60872727 10.6866364,5.34327273 L10.6939091,5.34327273 C11.0193636,5.31781818 11.3048182,5.56145455 11.3302727,5.88690909 C11.3557273,6.21327273 11.1120909,6.49872727 10.7866364,6.52327273 C10.7639091,6.52509091 10.7402727,6.526 10.7184545,6.52509091 C7.21754545,6.39690909 3.79027273,5.84236364 0.446636364,5.01327273 Z" id="path-5"></path>
    </defs>
    <g id="✏️-Web-Mobile-" stroke="none" stroke-width="1" fill="none" fill-rule="evenodd">
        <g id="Webmobile-Boarding-LP" transform="translate(-103.000000, -1120.000000)">
            <g id="Illustration/Scenarios/Credits" transform="translate(100.000000, 1110.000000)">
                <g id="Group-2" transform="translate(3.636364, 10.000000)">
                    <g id="Color/Mar_700">
                        <mask id="mask-2" fill="white">
                            <use xlink:href="#path-1"></use>
                        </mask>
                        <use id="Mask" fill-opacity="0" fill="#EFF3DA" xlink:href="#path-1"></use>
                        <g id="Color/Cítrico_050" mask="url(#mask-2)" fill="#F1F6DA">
                            <g transform="translate(-3.636364, -10.000000)">
                                <rect x="0" y="0" width="160" height="160"></rect>
                            </g>
                        </g>
                    </g>
                    <g id="Group" transform="translate(2.727273, 48.181818)">
                        <path d="M45.3374545,63.8200909 L17.1938182,70.4046364 C16.2301818,70.6300909 15.2665455,70.0319091 15.0410909,69.0682727 L0.951090909,8.85009091 C0.725636364,7.88554545 1.32381818,6.92190909 2.28836364,6.69645455 L30.4310909,0.111 C31.3947273,-0.114454545 32.3592727,0.484636364 32.5847273,1.44827273 L46.6747273,61.6664545 C46.9001818,62.6300909 46.302,63.5946364 45.3374545,63.8200909" id="Fill-4" fill="#728629"></path>
                        <path d="M39.4736364,44.0970909 C39.4681818,44.0734545 39.4581818,44.0507273 39.4454545,44.0298182 C39.2181818,43.6616364 38.9963636,43.2898182 38.78,42.9143636 C38.7236364,42.8170909 38.6027273,42.7752727 38.4990909,42.8170909 C38.3945455,42.8589091 38.3354545,42.9707273 38.3618182,43.0807273 L40.9363636,54.0152727 C37.54,54.9107273 35.4209091,58.218 36.0172727,61.6870909 L24.5127273,64.3952727 C23.5154545,61.0634545 20.0509091,59.0007273 16.6409091,59.7334545 L6.45454545,16.4689091 C9.80818182,15.6052727 11.9927273,12.238 11.4272727,8.83072727 L22.9363636,6.12163636 C23.94,9.39254545 27.3436364,11.4234545 30.7490909,10.7461818 L32.8218182,19.548 C32.8463636,19.6570909 32.9490909,19.7352727 33.06,19.7225455 C33.1709091,19.7134545 33.2609091,19.6252727 33.2690909,19.5134545 C33.3009091,19.1070909 33.34,18.6998182 33.3854545,18.2943636 C33.3881818,18.268 33.3863636,18.2425455 33.38,18.2170909 L31.43,9.93254545 C31.4154545,9.87254545 31.3772727,9.81981818 31.3245455,9.78890909 C31.27,9.75618182 31.2072727,9.748 31.1472727,9.76527273 L30.8445455,9.85072727 C30.8081818,9.86163636 30.7718182,9.87345455 30.7354545,9.88254545 C27.5827273,10.6225455 24.4045455,8.66527273 23.6509091,5.51527273 L23.6054545,5.32345455 C23.5763636,5.20163636 23.4572727,5.12527273 23.3327273,5.15527273 L10.6427273,8.14254545 C10.52,8.17072727 10.4445455,8.29345455 10.4727273,8.41527273 L10.5172727,8.60709091 C11.2481818,11.7625455 9.27818182,14.9325455 6.12545455,15.6752727 C6.07727273,15.6870909 6.02909091,15.6943636 5.97363636,15.7034545 L5.66,15.7607273 C5.59909091,15.7725455 5.54545455,15.808 5.51090909,15.8598182 C5.47727273,15.9125455 5.46636364,15.9761818 5.48,16.0361818 L15.9618182,60.5552727 C15.9754545,60.6152727 16.0136364,60.6670909 16.0672727,60.6989091 C16.1209091,60.7298182 16.1854545,60.7389091 16.2454545,60.7207273 L16.56,60.6307273 C16.6072727,60.6161818 16.6536364,60.6016364 16.7,60.5907273 C19.8709091,59.8461818 23.0454545,61.8143636 23.79,64.978 L23.8390909,65.1916364 C23.8527273,65.2507273 23.8890909,65.3016364 23.9409091,65.3325455 C23.9772727,65.3561818 24.0190909,65.3670909 24.0609091,65.3670909 C24.0781818,65.3670909 24.0954545,65.3661818 24.1127273,65.3616364 L36.6363636,62.4116364 L36.8218182,62.3452727 C36.9309091,62.3061818 36.9927273,62.1916364 36.9663636,62.0789091 L36.9209091,61.8861818 C36.5609091,60.3570909 36.82,58.7752727 37.65,57.4352727 C38.4790909,56.0943636 39.7790909,55.158 41.3072727,54.798 C41.3454545,54.7898182 41.3827273,54.7834545 41.4281818,54.7761818 L41.73,54.7198182 C41.7909091,54.708 41.8445455,54.6716364 41.8790909,54.6198182 C41.9127273,54.568 41.9236364,54.5034545 41.9090909,54.4434545 L39.4736364,44.0970909 Z" id="Fill-6" fill="#BFD35D"></path>
                        <path d="M21.5377273,26.0768182 C16.4631818,27.2704545 13.3177273,32.3522727 14.5122727,37.4259091 C15.7068182,42.4995455 20.7895455,45.645 25.8631818,44.4504545 C30.9377273,43.2559091 34.0822727,38.175 32.8877273,33.1013636 C31.6931818,28.0277273 26.6122727,24.8822727 21.5377273,26.0768182" id="Fill-8" fill="#BFD35D"></path>
                        <path d="M18.8695455,18.3877273 C18.8377273,18.7922727 18.775,19.1168182 18.6813636,19.3604545 C18.5886364,19.605 18.4140909,19.7577273 18.1577273,19.8177273 C17.6313636,19.9413636 17.2631818,19.6077273 17.0522727,18.8159091 L18.8695455,18.3877273 Z M20.6622727,16.6140909 C20.7522727,16.4059091 20.925,16.2722727 21.1804545,16.2113636 C21.7295455,16.0822727 22.1113636,16.3695455 22.325,17.0740909 L20.4968182,17.5040909 C20.5168182,17.1186364 20.5722727,16.8213636 20.6622727,16.6140909 L20.6622727,16.6140909 Z M14.4468182,19.5359091 L15.6877273,19.2440909 C15.7904545,19.6086364 15.9277273,19.9477273 16.1004545,20.2604545 C16.2731818,20.5731818 16.4831818,20.8331818 16.7304545,21.0413636 C16.9777273,21.2486364 17.2659091,21.3913636 17.5940909,21.4695455 C17.9222727,21.5468182 18.2931818,21.5368182 18.7068182,21.4395455 C19.0759091,21.3531818 19.3713636,21.2195455 19.595,21.0395455 C19.8186364,20.8604545 19.995,20.6377273 20.1231818,20.3740909 C20.2522727,20.1095455 20.3386364,19.8031818 20.3840909,19.455 C20.4286364,19.1068182 20.4577273,18.725 20.4713636,18.3086364 L20.4722727,18.0104545 L22.425,17.5504545 C22.4540909,17.7740909 22.4604545,17.995 22.4440909,18.2131818 C22.4277273,18.4313636 22.4004545,18.6340909 22.3613636,18.8231818 C22.3222727,19.0104545 22.2795455,19.175 22.2331818,19.3168182 C22.1868182,19.4586364 22.1431818,19.5586364 22.1013636,19.6159091 L23.5277273,20.0068182 C23.6713636,19.6395455 23.7768182,19.2277273 23.8440909,18.7713636 C23.9113636,18.3140909 23.905,17.8340909 23.8259091,17.3277273 L24.9668182,17.0604545 L24.8068182,16.3822727 L23.6559091,16.6531818 C23.5404545,16.2995455 23.385,15.9786364 23.1904545,15.6913636 C22.9959091,15.4031818 22.7659091,15.1695455 22.5013636,14.9895455 C22.2368182,14.8095455 21.9395455,14.6886364 21.6122727,14.6268182 C21.2831818,14.565 20.9313636,14.5795455 20.555,14.6677273 C20.2468182,14.7404545 19.9922727,14.8495455 19.7922727,14.9959091 C19.5922727,15.1422727 19.4304545,15.3295455 19.305,15.5577273 C19.1804545,15.785 19.0886364,16.055 19.0313636,16.3659091 C18.9731818,16.6777273 18.9368182,17.0377273 18.9222727,17.4459091 C18.9159091,17.5195455 18.9104545,17.5922727 18.9077273,17.6640909 C18.905,17.7359091 18.9040909,17.8077273 18.905,17.8786364 L16.9631818,18.3359091 C16.9295455,18.0586364 16.9240909,17.7831818 16.9486364,17.5122727 C16.9713636,17.2404545 17.0059091,16.9895455 17.0513636,16.7604545 C17.0968182,16.5313636 17.1504545,16.3322727 17.2140909,16.1631818 C17.2777273,15.9931818 17.3322727,15.8704545 17.3777273,15.7968182 L15.8731818,15.4240909 C15.6822727,15.8977273 15.5577273,16.4059091 15.4986364,16.9477273 C15.4395455,17.4895455 15.4540909,18.0277273 15.5395455,18.5640909 L14.2868182,18.8586364 L14.4468182,19.5359091 Z" id="Fill-10" fill="#BFD35D"></path>
                        <path d="M28.6786364,52.2602727 C28.6986364,51.8739091 28.7540909,51.5766364 28.845,51.3702727 C28.9340909,51.1611818 29.1077273,51.0275455 29.3631818,50.9675455 C29.9122727,50.8384545 30.2940909,51.1248182 30.5068182,51.8293636 L28.6786364,52.2602727 Z M26.8640909,54.1166364 C26.7704545,54.3611818 26.5959091,54.513 26.3404545,54.573 C25.8140909,54.6975455 25.445,54.363 25.235,53.5702727 L27.0522727,53.1439091 C27.0204545,53.5475455 26.9577273,53.8720909 26.8640909,54.1166364 L26.8640909,54.1166364 Z M32.9895455,51.1384545 L31.8377273,51.4084545 C31.7231818,51.0548182 31.5677273,50.7339091 31.3731818,50.4466364 C31.1786364,50.1584545 30.9486364,49.9248182 30.6840909,49.7448182 C30.4186364,49.5648182 30.1222727,49.4439091 29.7940909,49.3820909 C29.4659091,49.3211818 29.1140909,49.3339091 28.7377273,49.423 C28.4286364,49.4957273 28.175,49.6048182 27.975,49.7511818 C27.775,49.8975455 27.6131818,50.0839091 27.4877273,50.3120909 C27.3622727,50.5402727 27.2713636,50.8102727 27.2140909,51.1220909 C27.1559091,51.433 27.1195455,51.793 27.105,52.2020909 C27.0977273,52.2748182 27.0931818,52.3475455 27.0904545,52.4193636 C27.0877273,52.4911818 27.0868182,52.563 27.0877273,52.6348182 L25.1459091,53.0911818 C25.1122727,52.813 25.1068182,52.5393636 25.1304545,52.2675455 C25.1540909,51.9957273 25.1886364,51.7457273 25.2331818,51.5166364 C25.2786364,51.2875455 25.3331818,51.0884545 25.3968182,50.9175455 C25.4595455,50.7484545 25.515,50.6257273 25.5604545,50.5520909 L24.0559091,50.1793636 C23.865,50.653 23.7404545,51.1611818 23.6813636,51.703 C23.6222727,52.2448182 23.6359091,52.7839091 23.7222727,53.3193636 L22.4695455,53.6139091 L22.6286364,54.2911818 L23.8704545,53.9993636 C23.9722727,54.3639091 24.1104545,54.7039091 24.2831818,55.0157273 C24.455,55.3284545 24.665,55.5884545 24.9131818,55.7975455 C25.1604545,56.0039091 25.4486364,56.1466364 25.7768182,56.2248182 C26.1040909,56.3020909 26.475,56.293 26.8895455,56.1948182 C27.2577273,56.1084545 27.5540909,55.9748182 27.7777273,55.7957273 C28.0013636,55.6157273 28.1777273,55.393 28.3059091,55.1284545 C28.4340909,54.8639091 28.5213636,54.5575455 28.5659091,54.2102727 C28.6113636,53.8620909 28.6404545,53.4793636 28.6540909,53.0639091 L28.655,52.7666364 L30.6077273,52.3066364 C30.6368182,52.5293636 30.6422727,52.7502727 30.6268182,52.9684545 C30.6104545,53.1875455 30.5831818,53.3902727 30.5440909,53.5775455 C30.5040909,53.7657273 30.4613636,53.9311818 30.4159091,54.0720909 C30.3695455,54.2139091 30.3259091,54.3139091 30.2840909,54.3711818 L31.7095455,54.7620909 C31.8540909,54.3957273 31.9595455,53.9839091 32.0268182,53.5275455 C32.0940909,53.0702727 32.0877273,52.5884545 32.0086364,52.0839091 L33.1486364,51.8157273 L32.9895455,51.1384545 Z" id="Fill-12" fill="#BFD35D"></path>
                    </g>
                    <g id="Color/Cereja_500" transform="translate(35.454545, 28.181818)">
                        <mask id="mask-4" fill="white">
                            <use xlink:href="#path-3"></use>
                        </mask>
                        <use id="Mask" fill-opacity="0" fill="#E73C5E" xlink:href="#path-3"></use>
                        <g mask="url(#mask-4)" fill="#EF3A5D">
                            <g transform="translate(-39.090909, -38.181818)">
                                <rect x="0" y="0" width="160" height="160"></rect>
                            </g>
                        </g>
                    </g>
                    <path d="M71.0517273,90.791 C73.6526364,89.9955455 75.9435455,88.4564545 77.4771818,86.1891818 C79.7562727,82.6400909 80.4035455,78.2082727 77.9026364,74.5846364 C75.8217273,71.5700909 72.2071818,70.0982727 68.6326364,70.311 C69.8208182,66.8928182 69.3644545,62.9600909 66.9635455,60.1382727 C64.1735455,56.8573636 59.7199091,56.2100909 55.7544545,57.4846364 C47.499,60.1373636 45.8980909,70.8537273 45.6217273,78.2628182 C45.5117273,81.2146364 45.5717273,84.1964545 45.8962727,87.1355455 C45.9199091,87.3464545 46.0644545,87.5373636 46.2608182,87.6173636 C49.309,88.8528182 52.4962727,89.801 55.7017273,90.521 C60.6499091,91.6319091 66.1135455,92.3000909 71.0517273,90.791" id="Fill-14" fill="#FEFEFE"></path>
                    <g id="Color/Cereja_700" transform="translate(65.454545, 105.454545)">
                        <mask id="mask-6" fill="white">
                            <use xlink:href="#path-5"></use>
                        </mask>
                        <use id="Mask" fill-opacity="0" fill="#C4324E" xlink:href="#path-5"></use>
                        <g mask="url(#mask-6)" fill="#C4304D" id="Color/Orange_700">
                            <g transform="translate(-69.090909, -115.454545)">
                                <rect x="0" y="0" width="160" height="160"></rect>
                            </g>
                        </g>
                    </g>
                </g>
            </g>
        </g>
    </g>
</svg>